<mxfile host="app.diagrams.net" modified="2024-05-17T04:44:09.613Z" agent="Mozilla/5.0 (Windows NT 10.0; Win64; x64) AppleWebKit/537.36 (KHTML, like Gecko) Chrome/124.0.0.0 Safari/537.36" etag="xFAFDN9d9Rd4W1qHvOjo" version="24.4.0" type="github">
  <diagram name="Page-1" id="MgCs5yewINOYIL8VQgKL">
    <mxGraphModel dx="4897" dy="3256" grid="1" gridSize="10" guides="1" tooltips="1" connect="1" arrows="1" fold="1" page="1" pageScale="1" pageWidth="827" pageHeight="1169" math="0" shadow="0">
      <root>
        <mxCell id="0" />
        <mxCell id="1" parent="0" />
        <mxCell id="YhSXKYytjkp0TWgyKWoK-138" style="edgeStyle=orthogonalEdgeStyle;rounded=0;orthogonalLoop=1;jettySize=auto;html=1;entryX=0.5;entryY=0;entryDx=0;entryDy=0;fontSize=14;" edge="1" parent="1" source="YhSXKYytjkp0TWgyKWoK-137" target="YhSXKYytjkp0TWgyKWoK-139">
          <mxGeometry relative="1" as="geometry">
            <mxPoint x="-230" y="-990" as="targetPoint" />
          </mxGeometry>
        </mxCell>
        <mxCell id="YhSXKYytjkp0TWgyKWoK-137" value="типы-классы, сформированные в типовом графе" style="shape=parallelogram;perimeter=parallelogramPerimeter;whiteSpace=wrap;html=1;fixedSize=1;fontSize=14;" vertex="1" parent="1">
          <mxGeometry x="-340" y="-1140" width="250" height="60" as="geometry" />
        </mxCell>
        <mxCell id="YhSXKYytjkp0TWgyKWoK-146" style="edgeStyle=orthogonalEdgeStyle;rounded=0;orthogonalLoop=1;jettySize=auto;html=1;entryX=0.5;entryY=0;entryDx=0;entryDy=0;fontSize=14;" edge="1" parent="1" source="YhSXKYytjkp0TWgyKWoK-139" target="YhSXKYytjkp0TWgyKWoK-142">
          <mxGeometry relative="1" as="geometry" />
        </mxCell>
        <mxCell id="YhSXKYytjkp0TWgyKWoK-139" value="Происходит выборка двух ранее не сравниваемых типов-классов" style="shape=loopLimit;whiteSpace=wrap;html=1;fontSize=14;" vertex="1" parent="1">
          <mxGeometry x="-295" y="-1030" width="130" height="90" as="geometry" />
        </mxCell>
        <mxCell id="YhSXKYytjkp0TWgyKWoK-196" style="edgeStyle=orthogonalEdgeStyle;rounded=0;orthogonalLoop=1;jettySize=auto;html=1;entryX=0.5;entryY=0;entryDx=0;entryDy=0;fontSize=14;" edge="1" parent="1" source="YhSXKYytjkp0TWgyKWoK-140" target="YhSXKYytjkp0TWgyKWoK-198">
          <mxGeometry relative="1" as="geometry">
            <mxPoint x="-210" y="-380" as="targetPoint" />
          </mxGeometry>
        </mxCell>
        <mxCell id="YhSXKYytjkp0TWgyKWoK-140" value="Завершение сравнения двух типов-классов" style="shape=loopLimit;whiteSpace=wrap;html=1;direction=west;fontSize=14;" vertex="1" parent="1">
          <mxGeometry x="-260" y="-530" width="100" height="80" as="geometry" />
        </mxCell>
        <mxCell id="YhSXKYytjkp0TWgyKWoK-143" style="edgeStyle=orthogonalEdgeStyle;rounded=0;orthogonalLoop=1;jettySize=auto;html=1;entryX=0;entryY=0.5;entryDx=0;entryDy=0;fontSize=14;" edge="1" parent="1" source="YhSXKYytjkp0TWgyKWoK-142" target="YhSXKYytjkp0TWgyKWoK-140">
          <mxGeometry relative="1" as="geometry">
            <mxPoint x="40" y="-854" as="targetPoint" />
            <Array as="points">
              <mxPoint x="-70" y="-870" />
              <mxPoint x="-70" y="-500" />
            </Array>
          </mxGeometry>
        </mxCell>
        <mxCell id="YhSXKYytjkp0TWgyKWoK-148" value="Да" style="edgeLabel;html=1;align=center;verticalAlign=middle;resizable=0;points=[];fontSize=14;" vertex="1" connectable="0" parent="YhSXKYytjkp0TWgyKWoK-143">
          <mxGeometry x="-0.516" relative="1" as="geometry">
            <mxPoint as="offset" />
          </mxGeometry>
        </mxCell>
        <mxCell id="YhSXKYytjkp0TWgyKWoK-149" style="edgeStyle=orthogonalEdgeStyle;rounded=0;orthogonalLoop=1;jettySize=auto;html=1;entryX=0.5;entryY=0;entryDx=0;entryDy=0;fontSize=14;" edge="1" parent="1" source="YhSXKYytjkp0TWgyKWoK-142" target="YhSXKYytjkp0TWgyKWoK-147">
          <mxGeometry relative="1" as="geometry" />
        </mxCell>
        <mxCell id="YhSXKYytjkp0TWgyKWoK-150" value="Нет" style="edgeLabel;html=1;align=center;verticalAlign=middle;resizable=0;points=[];fontSize=14;" vertex="1" connectable="0" parent="YhSXKYytjkp0TWgyKWoK-149">
          <mxGeometry x="-0.3222" y="-4" relative="1" as="geometry">
            <mxPoint as="offset" />
          </mxGeometry>
        </mxCell>
        <mxCell id="YhSXKYytjkp0TWgyKWoK-142" value="Типы имеют одинаковую ссылку на тип" style="rhombus;whiteSpace=wrap;html=1;fontSize=14;" vertex="1" parent="1">
          <mxGeometry x="-350" y="-920" width="290" height="90" as="geometry" />
        </mxCell>
        <mxCell id="YhSXKYytjkp0TWgyKWoK-156" style="edgeStyle=orthogonalEdgeStyle;rounded=0;orthogonalLoop=1;jettySize=auto;html=1;fontSize=14;" edge="1" parent="1" source="YhSXKYytjkp0TWgyKWoK-147" target="YhSXKYytjkp0TWgyKWoK-153">
          <mxGeometry relative="1" as="geometry" />
        </mxCell>
        <mxCell id="YhSXKYytjkp0TWgyKWoK-147" value="Процесс сравнения типов свойств у типов-классов" style="rounded=0;whiteSpace=wrap;html=1;fontSize=14;" vertex="1" parent="1">
          <mxGeometry x="-360" y="-800" width="140" height="80" as="geometry" />
        </mxCell>
        <mxCell id="YhSXKYytjkp0TWgyKWoK-157" style="edgeStyle=orthogonalEdgeStyle;rounded=0;orthogonalLoop=1;jettySize=auto;html=1;entryX=0.5;entryY=0;entryDx=0;entryDy=0;fontSize=14;" edge="1" parent="1" source="YhSXKYytjkp0TWgyKWoK-153" target="YhSXKYytjkp0TWgyKWoK-158">
          <mxGeometry relative="1" as="geometry">
            <mxPoint x="-470" y="-580" as="targetPoint" />
          </mxGeometry>
        </mxCell>
        <mxCell id="YhSXKYytjkp0TWgyKWoK-159" value="Да" style="edgeLabel;html=1;align=center;verticalAlign=middle;resizable=0;points=[];fontSize=14;" vertex="1" connectable="0" parent="YhSXKYytjkp0TWgyKWoK-157">
          <mxGeometry x="-0.3458" y="-4" relative="1" as="geometry">
            <mxPoint as="offset" />
          </mxGeometry>
        </mxCell>
        <mxCell id="YhSXKYytjkp0TWgyKWoK-160" style="edgeStyle=orthogonalEdgeStyle;rounded=0;orthogonalLoop=1;jettySize=auto;html=1;fontSize=14;" edge="1" parent="1" source="YhSXKYytjkp0TWgyKWoK-153" target="YhSXKYytjkp0TWgyKWoK-140">
          <mxGeometry relative="1" as="geometry" />
        </mxCell>
        <mxCell id="YhSXKYytjkp0TWgyKWoK-162" value="Нет" style="edgeLabel;html=1;align=center;verticalAlign=middle;resizable=0;points=[];fontSize=14;" vertex="1" connectable="0" parent="YhSXKYytjkp0TWgyKWoK-160">
          <mxGeometry x="-0.1042" y="-3" relative="1" as="geometry">
            <mxPoint as="offset" />
          </mxGeometry>
        </mxCell>
        <mxCell id="YhSXKYytjkp0TWgyKWoK-153" value="Типы-классы имеют одинаковую структуру?" style="rhombus;whiteSpace=wrap;html=1;fontSize=14;" vertex="1" parent="1">
          <mxGeometry x="-395" y="-680" width="190" height="80" as="geometry" />
        </mxCell>
        <mxCell id="YhSXKYytjkp0TWgyKWoK-161" style="edgeStyle=orthogonalEdgeStyle;rounded=0;orthogonalLoop=1;jettySize=auto;html=1;fontSize=14;" edge="1" parent="1" source="YhSXKYytjkp0TWgyKWoK-158" target="YhSXKYytjkp0TWgyKWoK-140">
          <mxGeometry relative="1" as="geometry">
            <Array as="points">
              <mxPoint x="-525" y="-490" />
            </Array>
          </mxGeometry>
        </mxCell>
        <mxCell id="YhSXKYytjkp0TWgyKWoK-158" value="Типы-классы записываются в элемент двумерного массива, содержащий объединяемые типы для постобработки" style="rounded=0;whiteSpace=wrap;html=1;fontSize=14;" vertex="1" parent="1">
          <mxGeometry x="-650" y="-610" width="250" height="90" as="geometry" />
        </mxCell>
        <mxCell id="YhSXKYytjkp0TWgyKWoK-198" value="Процесс создания новых типов-классов и удаление старых, соответствующих по структуре" style="rounded=0;whiteSpace=wrap;html=1;fontSize=14;" vertex="1" parent="1">
          <mxGeometry x="-290" y="-390" width="180" height="83" as="geometry" />
        </mxCell>
      </root>
    </mxGraphModel>
  </diagram>
</mxfile>
